HIERARCHY
ROOT Hips
{
	OFFSET -0.001795 -0.223333 0.028219
	CHANNELS 6 Xposition Yposition Zposition Zrotation Yrotation Xrotation 
	JOINT LeftUpLeg
	{
		OFFSET 0.069520 -0.091406 -0.006815
		CHANNELS 3 Zrotation Yrotation Xrotation
		JOINT LeftLeg
		{
			OFFSET 0.034277 -0.375199 -0.004496
			CHANNELS 3 Zrotation Yrotation Xrotation
			JOINT LeftFoot
			{
				OFFSET -0.013596 -0.397961 -0.043693
				CHANNELS 3 Zrotation Yrotation Xrotation
				JOINT LeftToe
				{
					OFFSET 0.026358 -0.055791 0.119288
					CHANNELS 3 Zrotation Yrotation Xrotation
					End Site
					{
						OFFSET 0.000000 0.000000 0.000000
					}
				}
			}
		}
	}
	JOINT RightUpLeg
	{
		OFFSET -0.067670 -0.090522 -0.004320
		CHANNELS 3 Zrotation Yrotation Xrotation
		JOINT RightLeg
		{
			OFFSET -0.038290 -0.382569 -0.008850
			CHANNELS 3 Zrotation Yrotation Xrotation
			JOINT RightFoot
			{
				OFFSET 0.015774 -0.398415 -0.042312
				CHANNELS 3 Zrotation Yrotation Xrotation
				JOINT RightToe
				{
					OFFSET -0.025372 -0.048144 0.123348
					CHANNELS 3 Zrotation Yrotation Xrotation
					End Site
					{
						OFFSET 0.000000 0.000000 0.000000
					}
				}
			}
		}
	}
	JOINT Spine
	{
		OFFSET -0.002533 0.108963 -0.026696
		CHANNELS 3 Zrotation Yrotation Xrotation
		JOINT Spine1
		{
			OFFSET 0.005487 0.135180 0.001092
			CHANNELS 3 Zrotation Yrotation Xrotation
			JOINT Spine2
			{
				OFFSET 0.001457 0.052922 0.025425
				CHANNELS 3 Zrotation Yrotation Xrotation
				JOINT Neck
				{
					OFFSET -0.002778 0.213870 -0.042857
					CHANNELS 3 Zrotation Yrotation Xrotation
					JOINT Head
					{
						OFFSET 0.005152 0.064970 0.051349
						CHANNELS 3 Zrotation Yrotation Xrotation
						End Site
						{
							OFFSET 0.000000 0.000000 0.000000
						}
					}
				}
				JOINT LeftShoulder
				{
					OFFSET 0.078845 0.121749 -0.034090
					CHANNELS 3 Zrotation Yrotation Xrotation
					JOINT LeftArm
					{
						OFFSET 0.090977 0.030469 -0.008868
						CHANNELS 3 Zrotation Yrotation Xrotation
						JOINT LeftForeArm
						{
							OFFSET 0.259612 -0.012772 -0.027456
							CHANNELS 3 Zrotation Yrotation Xrotation
							JOINT LeftHand
							{
								OFFSET 0.249234 0.008986 -0.001171
								CHANNELS 3 Zrotation Yrotation Xrotation
								End Site
								{
									OFFSET 0.000000 0.000000 0.000000
								}
							}
						}
					}
				}
				JOINT RightShoulder
				{
					OFFSET -0.081759 0.118833 -0.038615
					CHANNELS 3 Zrotation Yrotation Xrotation
					JOINT RightArm
					{
						OFFSET -0.096012 0.032551 -0.009143
						CHANNELS 3 Zrotation Yrotation Xrotation
						JOINT RightForeArm
						{
							OFFSET -0.253742 -0.013329 -0.021401
							CHANNELS 3 Zrotation Yrotation Xrotation
							JOINT RightHand
							{
								OFFSET -0.255298 0.007772 -0.005559
								CHANNELS 3 Zrotation Yrotation Xrotation
								End Site
								{
									OFFSET 0.000000 0.000000 0.000000
								}
							}
						}
					}
				}
			}
		}
	}
}
MOTION
Frames: 13
Frame Time: 0.050000
0.000000 0.934321 0.000000 -1.901743 -17.412221 0.721883 5.955482 0.123103 -24.118281 -3.063481 0.453411 1.043444 7.388084 14.454881 15.171783 0.000000 0.000000 0.000000 0.702070 -0.746764 9.969588 0.913493 0.095785 3.875629 0.170539 3.714295 -3.884561 0.000000 0.000000 0.000000 3.718460 -0.727032 12.737038 -3.784208 1.206334 -23.451199 0.880608 14.492610 27.432671 7.770127 -1.991635 -27.434077 0.000000 0.000000 0.000000 -18.405773 -4.294578 0.486123 -52.842162 -11.030818 -3.802741 -4.395490 -24.655787 2.067948 0.000000 0.000000 0.000000 22.349950 -3.143968 -2.212722 58.121374 14.755727 -1.106106 5.155199 26.834168 2.645708 0.000000 0.000000 0.000000 
-0.003600 0.925118 0.045168 -2.552862 -18.784854 1.595690 8.256364 0.864813 -24.656953 -2.404881 0.448119 -6.856484 6.321034 12.658771 18.503131 0.000000 0.000000 0.000000 0.204349 -0.740077 12.263626 -0.579032 0.270578 4.161217 2.349770 7.659705 -2.041608 0.000000 0.000000 0.000000 2.926830 -0.619842 12.398368 -2.951218 1.097037 -27.055548 2.540137 15.659754 30.926922 6.440915 -1.024869 -29.333369 0.000000 0.000000 0.000000 -19.122561 -3.830480 0.276149 -52.451031 -11.407164 -3.925772 -6.299635 -23.231235 2.356925 0.000000 0.000000 0.000000 22.044764 -5.126827 -3.265327 59.206783 14.102718 -1.679807 5.921578 28.677976 3.161625 0.000000 0.000000 0.000000 
-0.005947 0.917671 0.096085 -2.288626 -20.037812 1.354530 7.228281 0.739172 -25.539762 -1.359397 0.221787 -1.509696 7.237186 13.872876 14.689324 0.000000 0.000000 0.000000 -1.969169 -0.341525 15.064090 0.025923 0.293808 5.646312 2.788299 10.354856 -3.537476 0.000000 0.000000 0.000000 2.857568 -0.596501 12.635735 -3.967645 1.274496 -26.310329 1.300377 17.280461 30.408276 7.468814 -1.512908 -28.681425 0.000000 0.000000 0.000000 -17.338418 -2.801426 -0.361698 -52.894197 -11.017855 -4.140152 -5.352336 -21.504296 1.957772 0.000000 0.000000 0.000000 25.285631 -5.688951 -3.603337 58.676103 15.526378 -1.161555 3.944201 26.879347 2.549256 0.000000 0.000000 0.000000 
-0.006133 0.914854 0.152753 -1.897320 -21.282481 1.770169 7.320414 0.956894 -26.919770 -4.117762 0.747531 4.509055 6.982993 13.311764 19.583922 0.000000 0.000000 0.000000 -4.290820 0.248698 16.356314 0.166017 0.468670 8.496611 4.144916 10.273574 -0.268829 0.000000 0.000000 0.000000 1.666617 -0.423494 11.119656 -3.669611 1.210467 -26.375572 1.621045 18.843468 31.394080 7.075855 -1.250764 -27.775221 0.000000 0.000000 0.000000 -17.887588 -2.823469 -0.577077 -51.663330 -10.303863 -4.404601 -6.318365 -21.007308 2.059293 0.000000 0.000000 0.000000 26.030426 -5.456661 -3.249977 57.917802 15.257589 -1.483946 6.209433 26.747343 3.064174 0.000000 0.000000 0.000000 
-0.003812 0.918404 0.214436 -1.470762 -21.260894 1.365076 6.087301 0.551017 -26.390274 -5.407611 1.343874 10.149089 7.489123 14.100317 19.384649 0.000000 0.000000 0.000000 -6.060645 0.684927 16.935289 -0.445901 0.907659 12.617945 6.112864 9.501153 5.195076 0.000000 0.000000 0.000000 0.720703 -0.309406 9.960312 -3.930691 1.230196 -25.167431 1.937877 19.481786 31.265109 7.490978 -1.414000 -27.403152 0.000000 0.000000 0.000000 -17.909260 -3.588453 -0.352772 -51.629759 -10.165418 -4.419113 -5.011510 -19.683056 1.673987 0.000000 0.000000 0.000000 27.147329 -5.327833 -2.975988 57.611217 14.216537 -2.133617 6.227532 26.667403 3.109320 0.000000 0.000000 0.000000 
0.000869 0.926576 0.277335 -1.152800 -20.831751 1.155264 4.876330 0.092312 -24.981318 -6.780924 2.074374 14.252533 7.551416 14.464231 15.241196 0.000000 0.000000 0.000000 -7.931070 0.942868 14.040465 -0.358447 1.870280 21.397220 9.702979 10.143898 13.198663 0.000000 0.000000 0.000000 0.238971 -0.258343 9.362077 -4.021396 1.262644 -25.105139 1.960419 19.242729 31.457037 6.691015 -0.918894 -27.549864 0.000000 0.000000 0.000000 -18.482541 -3.691380 -0.378533 -51.005679 -9.062821 -4.804870 -4.946437 -20.219415 1.706093 0.000000 0.000000 0.000000 26.418902 -5.147660 -2.800097 58.758854 12.437057 -2.927466 7.334074 26.229552 3.288184 0.000000 0.000000 0.000000 
0.006397 0.934658 0.337271 -0.944857 -18.474840 0.215257 2.144831 -0.788055 -22.040203 -7.139516 2.332059 16.641420 7.601705 14.959303 13.064441 0.000000 0.000000 0.000000 -7.669175 0.592893 9.558451 -0.845449 3.740199 33.271508 9.276892 5.964286 18.633211 0.000000 0.000000 0.000000 0.078909 -0.266681 10.170259 -3.588743 1.212807 -25.617713 1.180095 17.915953 31.202079 8.199573 -1.791793 -27.676822 0.000000 0.000000 0.000000 -18.275895 -4.128380 -0.157224 -50.439361 -9.159837 -4.713213 -5.532556 -20.739771 1.841644 0.000000 0.000000 0.000000 26.680969 -6.629938 -3.789399 58.411787 10.752596 -3.713194 8.625782 26.095120 3.549210 0.000000 0.000000 0.000000 
0.011963 0.940262 0.391958 -1.131905 -17.093132 -0.655453 0.046522 -1.167917 -17.190625 -6.731759 2.122421 16.423097 7.730917 15.535354 9.908255 0.000000 0.000000 0.000000 -6.890550 0.394970 2.940800 0.458417 5.281423 45.386401 5.171055 -0.052343 17.870930 0.000000 0.000000 0.000000 0.658164 -0.352921 11.310995 -3.600402 1.227297 -25.561068 -0.236524 15.663587 30.892342 7.576260 -1.757796 -27.142298 0.000000 0.000000 0.000000 -18.677994 -4.651540 0.460537 -48.918130 -9.354478 -4.616575 -6.124688 -22.318520 2.142266 0.000000 0.000000 0.000000 26.548368 -6.439184 -4.119362 58.154094 8.991791 -4.491903 10.119755 27.120685 3.980595 0.000000 0.000000 0.000000 
0.016878 0.945829 0.442576 -1.301554 -15.445390 -2.216897 -2.300806 -1.180597 -11.421216 -5.351943 1.488654 14.716197 6.609959 13.863692 9.181985 0.000000 0.000000 0.000000 -6.031406 0.455283 -3.106575 2.639499 5.175664 53.023385 2.099860 -2.476241 12.532102 0.000000 0.000000 0.000000 1.129886 -0.444443 13.121560 -3.043804 1.121945 -25.470163 -1.886979 13.188732 30.485089 7.505373 -1.979892 -27.210087 0.000000 0.000000 0.000000 -19.075150 -4.289635 0.607981 -48.232156 -9.980265 -4.398715 -5.560260 -24.617007 2.318634 0.000000 0.000000 0.000000 26.215389 -6.156437 -4.367354 58.104156 8.007031 -4.864688 10.726644 27.705015 4.140520 0.000000 0.000000 0.000000 
0.021364 0.950361 0.490126 -2.092564 -13.000445 -2.749059 -3.814316 -0.796745 -6.162817 -3.524478 0.760220 12.358622 5.465355 12.041195 7.335019 0.000000 0.000000 0.000000 -3.636477 0.829552 -9.446126 3.533339 4.309533 55.306020 -1.080955 -6.760988 8.612709 0.000000 0.000000 0.000000 2.570315 -0.668593 13.819619 -3.029295 1.160930 -25.853979 -2.919341 10.153676 30.887131 6.637496 -1.837673 -26.692271 0.000000 0.000000 0.000000 -19.160791 -5.007717 1.399514 -47.993825 -11.737666 -3.839964 -4.015945 -27.199492 2.296868 0.000000 0.000000 0.000000 26.344868 -6.232757 -4.905666 58.002733 6.375132 -5.604010 11.020319 29.225935 4.411790 0.000000 0.000000 0.000000 
0.025354 0.953283 0.535282 -2.857447 -9.757122 -3.212504 -4.553500 -0.212933 -1.359742 -2.126592 0.274675 9.728035 3.911023 9.284018 5.974206 0.000000 0.000000 0.000000 -1.527996 1.529984 -15.405010 2.864208 3.376161 52.557149 -1.946332 -7.703709 6.650550 0.000000 0.000000 0.000000 3.342947 -0.850816 14.644950 -2.514231 1.095187 -26.132161 -4.018596 6.861621 31.466569 6.386179 -1.953667 -26.788878 0.000000 0.000000 0.000000 -18.330546 -4.632607 1.557733 -48.847232 -14.298221 -2.999079 -3.119454 -29.672527 2.419599 0.000000 0.000000 0.000000 25.652466 -6.545487 -5.397491 58.260332 4.408680 -6.532374 11.515957 29.854426 4.583417 0.000000 0.000000 0.000000 
0.029145 0.953274 0.579501 -3.607827 -6.204744 -3.367798 -4.738311 0.413918 3.091914 -0.807229 -0.051994 7.728792 2.034305 5.621427 4.521280 0.000000 0.000000 0.000000 0.317128 2.218621 -19.715522 1.005822 2.658566 44.338113 -1.596358 -6.318427 5.251678 0.000000 0.000000 0.000000 3.991851 -1.012105 14.784604 -1.467321 0.904617 -26.285961 -5.171420 4.570166 31.953158 6.351840 -1.959409 -27.121023 0.000000 0.000000 0.000000 -16.940471 -4.823892 1.706460 -50.081526 -16.722403 -2.068867 -1.859331 -32.122202 2.354223 0.000000 0.000000 0.000000 25.350752 -7.278962 -5.820769 58.881092 3.072414 -7.251303 10.984002 30.501659 4.585968 0.000000 0.000000 0.000000 
0.033122 0.950801 0.624182 -3.924648 -1.887369 -3.504143 -4.466809 0.964745 7.261481 -0.258259 -0.148627 5.858217 0.183867 1.809414 3.375899 0.000000 0.000000 0.000000 1.229908 2.579505 -22.418151 -0.543595 1.804558 33.019353 -0.816546 -4.298411 5.050984 0.000000 0.000000 0.000000 4.033722 -1.100786 14.716997 -0.237362 0.684531 -26.406571 -6.320529 2.483007 32.012933 5.735949 -1.492472 -27.354926 0.000000 0.000000 0.000000 -16.008304 -5.354665 1.823113 -50.652672 -19.097493 -0.995584 -1.515864 -35.247513 2.484057 0.000000 0.000000 0.000000 24.876636 -8.169381 -6.123225 59.217801 0.821955 -8.339594 11.496827 29.620028 4.598023 0.000000 0.000000 0.000000 
